<?xml version="1.0" standalone="no"?>
<!DOCTYPE svg PUBLIC "-//W3C//DTD SVG 20010904//EN"
 "http://www.w3.org/TR/2001/REC-SVG-20010904/DTD/svg10.dtd">
<svg version="1.0" xmlns="http://www.w3.org/2000/svg"
 width="400.000000pt" height="400.000000pt" viewBox="0 0 400.000000 400.000000"
 preserveAspectRatio="xMidYMid meet">
<metadata>
Created by potrace 1.14, written by Peter Selinger 2001-2017
</metadata>
<g transform="translate(0.000000,400.000000) scale(0.100000,-0.100000)"
fill="#000000" stroke="none">
<path d="M1760 3993 c-30 -4 -199 -36 -251 -48 -9 -2 -45 -12 -80 -23 -522
-161 -944 -510 -1193 -985 -30 -56 -64 -127 -76 -157 -12 -30 -28 -68 -35 -85
-20 -46 -73 -242 -85 -315 -6 -36 -13 -76 -15 -90 -17 -98 -23 -358 -10 -468
59 -521 290 -966 680 -1310 66 -58 206 -159 281 -204 210 -123 501 -229 699
-254 22 -3 46 -7 54 -10 67 -22 457 -22 571 1 14 3 41 8 60 11 87 15 280 69
373 106 449 174 814 500 1044 929 77 144 168 399 189 529 3 19 10 53 16 75 18
68 19 505 2 615 -91 591 -442 1113 -952 1413 -214 126 -457 217 -672 252 -25
4 -54 10 -65 12 -25 7 -488 12 -535 6z"/>
</g>
</svg>
